<?xml version="1.0" standalone="no"?>
<!DOCTYPE svg PUBLIC "-//W3C//DTD SVG 20010904//EN"
 "http://www.w3.org/TR/2001/REC-SVG-20010904/DTD/svg10.dtd">
<svg version="1.0" xmlns="http://www.w3.org/2000/svg"
 width="330.000000pt" height="150.000000pt" viewBox="0 0 330.000000 150.000000"
 preserveAspectRatio="xMidYMid meet">

<g transform="translate(0.000000,150.000000) scale(0.100000,-0.100000)"
fill="#000000" stroke="none">
<path d="M820 1225 c0 -13 106 -15 890 -15 784 0 890 2 890 15 0 13 -106 15
-890 15 -784 0 -890 -2 -890 -15z"/>
<path d="M543 909 c15 -9 17 -27 17 -139 0 -123 1 -130 20 -130 18 0 20 7 20
65 0 56 3 65 18 65 10 0 26 -16 37 -37 33 -62 64 -93 93 -93 26 0 26 0 5 15
-12 8 -35 37 -52 65 l-31 50 30 15 c55 28 52 97 -6 121 -39 17 -180 20 -151 3z
m135 -25 c46 -32 13 -94 -50 -94 -27 0 -28 2 -28 55 0 53 1 55 28 55 15 0 38
-7 50 -16z"/>
<path d="M912 778 l2 -143 4 120 4 120 57 -119 56 -118 50 111 c27 62 53 115
57 117 4 3 8 -41 8 -98 0 -112 7 -131 50 -143 14 -3 20 -3 13 2 -24 17 -33 67
-33 179 0 103 -2 115 -17 112 -10 -2 -35 -43 -64 -106 -25 -57 -50 -103 -54
-103 -4 0 -29 46 -56 103 -70 148 -80 144 -77 -34z"/>
<path d="M1303 780 c-33 -77 -57 -140 -53 -140 4 0 14 18 23 40 l15 40 65 0
c63 0 65 -1 77 -30 13 -32 37 -50 65 -50 15 0 14 3 -3 18 -12 9 -42 69 -68
132 -26 63 -50 118 -54 123 -3 4 -33 -56 -67 -133z m54 -38 c-27 -2 -51 -1
-53 1 -2 2 8 30 22 63 l27 59 27 -60 27 -60 -50 -3z"/>
<path d="M1528 910 c21 -9 22 -14 22 -140 l0 -130 51 0 c72 0 126 18 155 53
19 23 24 40 24 87 0 103 -57 141 -207 139 -51 0 -62 -3 -45 -9z m161 -25 c71
-36 71 -174 0 -210 -15 -8 -46 -15 -69 -15 l-40 0 0 113 c0 63 3 117 7 120 11
12 73 7 102 -8z"/>
<path d="M1828 910 c21 -9 22 -14 22 -140 l0 -131 81 3 c75 3 83 5 97 28 16
25 16 25 -4 8 -15 -13 -38 -18 -82 -18 l-62 0 0 55 0 55 60 0 c33 0 60 4 60
10 0 6 -27 10 -60 10 l-60 0 0 55 0 55 59 0 c51 0 62 -3 75 -22 15 -22 16 -22
16 -2 0 37 -19 44 -125 43 -70 0 -93 -3 -77 -9z"/>
<path d="M2102 783 l3 -138 35 -2 c30 -2 32 -1 13 7 -22 9 -23 14 -23 140 0
110 -2 130 -15 130 -13 0 -15 -20 -13 -137z"/>
<path d="M2203 909 c15 -9 17 -27 17 -139 0 -123 1 -130 20 -130 18 0 20 7 20
65 0 56 3 65 18 65 10 0 26 -16 37 -37 33 -62 64 -93 93 -93 26 0 26 0 5 15
-12 8 -35 37 -52 65 l-31 50 30 15 c55 28 52 97 -6 121 -39 17 -180 20 -151 3z
m135 -25 c46 -32 13 -94 -50 -94 -27 0 -28 2 -28 55 0 53 1 55 28 55 15 0 38
-7 50 -16z"/>
<path d="M2503 780 c-33 -77 -57 -140 -53 -140 4 0 14 18 23 40 l15 40 65 0
c63 0 65 -1 77 -30 13 -32 37 -50 65 -50 15 0 14 3 -3 18 -12 9 -42 69 -68
132 -26 63 -50 118 -54 123 -3 4 -33 -56 -67 -133z m54 -38 c-27 -2 -51 -1
-53 1 -2 2 8 30 22 63 l27 59 27 -60 27 -60 -50 -3z"/>
<path d="M803 664 c-8 -21 13 -42 28 -27 13 13 5 43 -11 43 -6 0 -13 -7 -17
-16z"/>
<path d="M820 345 c0 -13 106 -15 890 -15 784 0 890 2 890 15 0 13 -106 15
-890 15 -784 0 -890 -2 -890 -15z"/>
</g>
</svg>
