<?xml version="1.0" encoding="iso-8859-1"?>
<!-- Generator: Adobe Illustrator 19.0.0, SVG Export Plug-In . SVG Version: 6.00 Build 0)  -->
<svg version="1.1" id="Layer_1" xmlns="http://www.w3.org/2000/svg" xmlns:xlink="http://www.w3.org/1999/xlink" x="0px" y="0px"
	 viewBox="0 0 512 512" style="enable-background:new 0 0 512 512;" xml:space="preserve">
<rect x="52.966" y="219.431" style="fill:#DCBE91;" width="406.069" height="211.862"/>
<g>
	<path style="fill:#F5DCAA;" d="M503.172,448.952H8.828v-17.655c0-4.875,3.953-8.828,8.828-8.828h476.69
		c4.875,0,8.828,3.953,8.828,8.828V448.952z"/>
	<path style="fill:#F5DCAA;" d="M494.345,228.262H17.655c-4.875,0-8.828-3.953-8.828-8.828V201.78h494.345v17.655
		C503.172,224.31,499.22,228.262,494.345,228.262z"/>
</g>
<g>
	<path style="fill:#FFEBBE;" d="M503.172,466.607H8.828c-4.875,0-8.828-3.953-8.828-8.828v-8.828c0-4.875,3.953-8.828,8.828-8.828
		h494.345c4.875,0,8.828,3.953,8.828,8.828v8.828C512,462.655,508.047,466.607,503.172,466.607z"/>
	<path style="fill:#FFEBBE;" d="M503.172,210.607H8.828c-4.875,0-8.828-3.953-8.828-8.828v-12.444c0-3.215,1.748-6.176,4.563-7.73
		L247.471,47.589c5.309-2.929,11.748-2.929,17.057,0l242.908,134.018c2.815,1.554,4.563,4.514,4.563,7.73v12.444
		C512,206.655,508.047,210.607,503.172,210.607z"/>
</g>
<path style="fill:#EBCD9B;" d="M61.793,245.918h-35.31c-4.875,0-8.828-3.953-8.828-8.828v-8.828h52.966v8.828
	C70.621,241.965,66.668,245.918,61.793,245.918z"/>
<rect x="26.483" y="245.914" style="fill:#F5DCAA;" width="35.31" height="176.552"/>
<g>
	<path style="fill:#EBCD9B;" d="M26.483,404.814h35.31c4.875,0,8.828,3.953,8.828,8.828v8.828H17.655v-8.828
		C17.655,408.767,21.608,404.814,26.483,404.814z"/>
	<path style="fill:#EBCD9B;" d="M273.655,245.918h-35.31c-4.875,0-8.828-3.953-8.828-8.828v-8.828h52.966v8.828
		C282.483,241.965,278.53,245.918,273.655,245.918z"/>
</g>
<rect x="238.345" y="245.914" style="fill:#F5DCAA;" width="35.31" height="176.552"/>
<g>
	<path style="fill:#EBCD9B;" d="M238.345,404.814h35.31c4.875,0,8.828,3.953,8.828,8.828v8.828h-52.966v-8.828
		C229.517,408.767,233.47,404.814,238.345,404.814z"/>
	<path style="fill:#EBCD9B;" d="M203.034,245.918h-35.31c-4.875,0-8.828-3.953-8.828-8.828v-8.828h52.966v8.828
		C211.862,241.965,207.91,245.918,203.034,245.918z"/>
</g>
<rect x="167.724" y="245.914" style="fill:#F5DCAA;" width="35.31" height="176.552"/>
<g>
	<path style="fill:#EBCD9B;" d="M167.724,404.814h35.31c4.875,0,8.828,3.953,8.828,8.828v8.828h-52.966v-8.828
		C158.897,408.767,162.849,404.814,167.724,404.814z"/>
	<path style="fill:#EBCD9B;" d="M132.414,245.918h-35.31c-4.875,0-8.828-3.953-8.828-8.828v-8.828h52.966v8.828
		C141.241,241.965,137.289,245.918,132.414,245.918z"/>
</g>
<rect x="97.103" y="245.914" style="fill:#F5DCAA;" width="35.31" height="176.552"/>
<g>
	<path style="fill:#EBCD9B;" d="M97.103,404.814h35.31c4.875,0,8.828,3.953,8.828,8.828v8.828H88.276v-8.828
		C88.276,408.767,92.228,404.814,97.103,404.814z"/>
	<path style="fill:#EBCD9B;" d="M344.276,245.918h-35.31c-4.875,0-8.828-3.953-8.828-8.828v-8.828h52.966v8.828
		C353.103,241.965,349.151,245.918,344.276,245.918z"/>
</g>
<rect x="308.966" y="245.914" style="fill:#F5DCAA;" width="35.31" height="176.552"/>
<g>
	<path style="fill:#EBCD9B;" d="M308.966,404.814h35.31c4.875,0,8.828,3.953,8.828,8.828v8.828h-52.966v-8.828
		C300.138,408.767,304.09,404.814,308.966,404.814z"/>
	<path style="fill:#EBCD9B;" d="M485.517,245.918h-35.31c-4.875,0-8.828-3.953-8.828-8.828v-8.828h52.966v8.828
		C494.345,241.965,490.392,245.918,485.517,245.918z"/>
</g>
<rect x="450.207" y="245.914" style="fill:#F5DCAA;" width="35.31" height="176.552"/>
<g>
	<path style="fill:#EBCD9B;" d="M450.207,404.814h35.31c4.875,0,8.828,3.953,8.828,8.828v8.828h-52.966v-8.828
		C441.379,408.767,445.332,404.814,450.207,404.814z"/>
	<path style="fill:#EBCD9B;" d="M414.897,245.918h-35.31c-4.875,0-8.828-3.953-8.828-8.828v-8.828h52.966v8.828
		C423.724,241.965,419.772,245.918,414.897,245.918z"/>
</g>
<rect x="379.586" y="245.914" style="fill:#F5DCAA;" width="35.31" height="176.552"/>
<path style="fill:#EBCD9B;" d="M379.586,404.814h35.31c4.875,0,8.828,3.953,8.828,8.828v8.828h-52.966v-8.828
	C370.759,408.767,374.711,404.814,379.586,404.814z"/>
<path style="fill:#F5DCAA;" d="M256,83.212l166.905,92.086H89.095L256,83.212"/>
<g>
</g>
<g>
</g>
<g>
</g>
<g>
</g>
<g>
</g>
<g>
</g>
<g>
</g>
<g>
</g>
<g>
</g>
<g>
</g>
<g>
</g>
<g>
</g>
<g>
</g>
<g>
</g>
<g>
</g>
</svg>
